<?xml version="1.0" standalone="no"?><!-- Generator: Gravit.io --><svg xmlns="http://www.w3.org/2000/svg" xmlns:xlink="http://www.w3.org/1999/xlink" style="isolation:isolate" viewBox="0 0 64 64" width="64" height="64"><defs><clipPath id="_clipPath_jcglhnwAmYs6QRnEXHzQd6Et7etRUywg"><rect width="64" height="64"/></clipPath></defs><g clip-path="url(#_clipPath_jcglhnwAmYs6QRnEXHzQd6Et7etRUywg)"><clipPath id="_clipPath_CL2w3FeGnl2JmWe8OcnfzOjPDhNzXviw"><rect x="0" y="0" width="64" height="64" transform="matrix(1,0,0,1,0,0)" fill="rgb(255,255,255)"/></clipPath><g clip-path="url(#_clipPath_CL2w3FeGnl2JmWe8OcnfzOjPDhNzXviw)"><g id="Group"><path d=" M 26.202 34.112 C 25.919 33.998 25.578 33.907 25.297 33.787 C 22.951 32.785 20.697 31.614 18.542 30.257 C 16.567 29.048 14.71 27.715 12.946 26.23 C 11.514 25.061 10.208 23.747 9.043 22.312 C 8.711 21.903 8.405 21.46 8.117 21.021 C 7.211 19.621 6.587 18.072 6.246 16.45 C 5.924 15.003 5.922 13.489 6.218 12.02 C 6.587 10.017 7.765 8.259 9.475 7.141 C 11.164 6.114 13.202 5.785 15.129 6.244 C 16.573 6.545 17.934 7.152 19.129 8.007 C 20.46 8.928 21.605 10.094 22.522 11.439 C 23.831 13.359 25.025 15.367 26.07 17.458 C 26.303 17.916 26.576 18.344 26.848 18.788" fill="rgb(0,168,255)" vector-effect="non-scaling-stroke" stroke-width="2" stroke="rgb(255,255,255)" stroke-opacity="100" stroke-linejoin="miter" stroke-linecap="butt" stroke-miterlimit="4"/><path d=" M 26.848 18.788 C 27.295 19.518 27.772 20.251 28.304 20.909 C 30.025 23.036 32.67 24.78 36.122 25.296 C 36.438 25.343 36.752 25.366 37.067 25.393 L 41.451 36.678 C 40.407 36.799 39.329 36.829 38.274 36.805 C 36.412 36.756 34.565 36.54 32.738 36.157 C 30.48 35.668 28.336 34.972 26.202 34.112 L 26.848 18.788 Z " fill="rgb(0,168,255)"/><path d=" M 37.067 25.393 C 42.724 25.878 47.843 23.154 48.235 18.955 C 48.458 16.559 47.012 15.967 45.746 15.865 C 41.496 15.526 37.748 19.817 37.067 25.393 C 37.029 25.694 36.993 25.979 36.975 26.288 C 36.77 29.736 37.783 32.885 39.531 34.993 C 40.17 35.573 40.791 36.124 41.451 36.678 C 41.836 37 42.25 37.334 42.644 37.645 C 44.493 39.088 46.232 40.66 47.856 42.326 C 48.998 43.491 49.912 44.842 50.547 46.322 C 51.145 47.654 51.463 49.098 51.463 50.559 C 51.521 52.52 50.774 54.426 49.409 55.85 C 47.949 57.276 45.97 58.053 43.913 57.997 C 42.4 57.979 40.905 57.664 39.541 57.053 C 38.006 56.387 36.604 55.463 35.408 54.297 C 35.036 53.927 34.661 53.538 34.325 53.131 C 33.149 51.706 32.118 50.171 31.26 48.543 C 30.158 46.526 29.224 44.453 28.439 42.288 C 27.541 39.92 26.848 37.496 26.343 35.017 C 26.285 34.734 26.254 34.396 26.202 34.112 C 25.79 31.853 25.557 29.621 25.541 27.32 C 25.541 25.47 25.71 23.638 26.044 21.825 C 26.243 20.774 26.5 19.796 26.848 18.788 C 27.088 18.092 27.378 17.353 27.691 16.681 C 29.315 13.239 31.915 10.353 35.205 8.391 C 36.158 7.781 38.533 6.871 38.614 6.843 C 40.32 6.224 42.86 6.021 43.121 6.014 C 54.353 5.54 62.074 17.347 55.693 27.707 C 55.648 27.777 54.298 29.974 53.442 30.712 C 50.406 33.329 46.985 35.477 43.697 36.275 C 42.944 36.445 42.212 36.589 41.451 36.678" fill="rgb(0,168,255)" vector-effect="non-scaling-stroke" stroke-width="2" stroke="rgb(255,255,255)" stroke-opacity="100" stroke-linejoin="miter" stroke-linecap="butt" stroke-miterlimit="4"/></g></g></g></svg>